:FULLY-SPECIFIED
:FORCE-ALL-JOINTS-BE-3DOF
:DEGREES
951
root 1.09 15.2666 32.7421 6.71094 -3.45259 4.57663
lfemur 7.37428 1.20426 4.43016
ltibia 0 0 0
lfoot -28.5713 -13.9558 -0.00638111
ltoes -31.9945 0 0
rfemur -32.0137 -16.0885 -6.9419
rtibia 49.5624 -0 0
rfoot -21.2548 4.70365 -0.00551434
rtoes -42.2961 0 0
lowerback -2.15341 -0.611512 0.869011
upperback -1.31403 -0.836616 -6.71909
thorax -0.261265 -0.457373 -7.51208
lowerneck -6.34542 0.827884 4.94516
upperneck 0.788939 0.634283 3.34658
head 1.31656 0.403477 0.229457
lclavicle 0 0 0
lhumerus -59.2747 -44.0374 112.971
lradius 55.5556 -0 0
lwrist 25.1667 0 0
lhand 39.629 24.1377 0.00382818
lfingers 0 0 0
lthumb 62.0813 35.4864 -0.00530236
rclavicle 0 0 0
rhumerus 3.70184 -31.3047 -0.264598
rradius 29.0455 -0 0
rwrist -16.2017 0 0
rhand -37.3884 -49.6974 0.0155976
rfingers 0 0 0
rthumb -10.4486 -79.4004 0.0122778
952
root 1.07638 15.2574 32.7347 6.63313 -3.74032 4.48939
lfemur 7.61733 1.43431 4.57706
ltibia 0 0 0
lfoot -28.7248 -13.6355 -0.0068127
ltoes -32.2627 0 0
rfemur -32.2927 -16.0923 -6.72618
rtibia 49.8406 -0 0
rfoot -21.5253 4.86067 -0.00588731
rtoes -42.188 0 0
lowerback -2.10185 -0.674164 0.882523
upperback -1.25838 -0.919797 -6.625
thorax -0.242373 -0.497666 -7.41933
lowerneck -6.24977 0.956039 5.10606
upperneck 0.728598 0.802124 3.33151
head 1.28278 0.484714 0.202446
lclavicle 0 0 0
lhumerus -59.2996 -44.1165 113.172
lradius 55.5314 -0 0
lwrist 25.1905 0 0
lhand 39.3528 24.0309 0.00408709
lfingers 0 0 0
lthumb 61.8506 35.6635 -0.00566099
rclavicle 0 0 0
rhumerus 4.02862 -30.2196 0.0602684
rradius 29.0352 -0 0
rwrist -15.9561 0 0
rhand -36.6902 -49.5253 0.0166527
rfingers 0 0 0
rthumb -9.77501 -79.2599 0.0131083
953
root 1.06483 15.2493 32.7276 6.5562 -4.02644 4.40302
lfemur 7.85953 1.66235 4.72407
ltibia 0 0 0
lfoot -28.8773 -13.317 -0.00639135
ltoes -32.5293 0 0
rfemur -32.5701 -16.0949 -6.51173
rtibia 50.1172 -0 0
rfoot -21.7943 5.01675 -0.0055232
rtoes -42.0806 0 0
lowerback -2.05061 -0.736452 0.895898
upperback -1.20319 -1.00257 -6.53155
thorax -0.223658 -0.537749 -7.32715
lowerneck -6.15433 1.08316 5.26622
upperneck 0.668572 0.968945 3.31637
head 1.24916 0.565449 0.175549
lclavicle 0 0 0
lhumerus -59.3248 -44.195 113.372
lradius 55.5073 -0 0
lwrist 25.2141 0 0
lhand 39.0783 23.9248 0.00383432
lfingers 0 0 0
lthumb 61.6213 35.8395 -0.00531088
rclavicle 0 0 0
rhumerus 4.35695 -29.1425 0.386752
rradius 29.025 -0 0
rwrist -15.7119 0 0
rhand -35.9963 -49.3542 0.0156226
rfingers 0 0 0
rthumb -9.10546 -79.1203 0.0122975
954
root 1.05538 15.2424 32.7211 6.48427 -4.29542 4.32218
lfemur 8.08771 1.87609 4.86311
ltibia 0 0 0
lfoot -29.0207 -13.0177 -0.00522268
ltoes -32.7798 0 0
rfemur -32.8308 -16.0966 -6.31018
rtibia 50.377 -0 0
rfoot -22.047 5.16343 -0.00451328
rtoes -41.9797 0 0
lowerback -2.00247 -0.794998 0.908417
upperback -1.15146 -1.08044 -6.4438
thorax -0.20613 -0.575444 -7.24054
lowerneck -6.06432 1.20238 5.41693
upperneck 0.612119 1.1257 3.30197
head 1.21753 0.641306 0.150229
lclavicle 0 0 0
lhumerus -59.3488 -44.2688 113.561
lradius 55.4847 -0 0
lwrist 25.2363 0 0
lhand 38.8204 23.825 0.00313322
lfingers 0 0 0
lthumb 61.4058 36.0049 -0.00433979
rclavicle 0 0 0
rhumerus 4.66877 -28.1319 0.696903
rradius 29.0153 -0 0
rwrist -15.4825 0 0
rhand -35.3441 -49.1934 0.0127656
rfingers 0 0 0
rthumb -8.47624 -78.9891 0.0100486
955
root 1.04801 15.2369 32.7156 6.4214 -4.53173 4.25144
lfemur 8.28854 2.06334 4.98594
ltibia 0 0 0
lfoot -29.1465 -12.7549 -0.0035789
ltoes -32.9998 0 0
rfemur -33.0598 -16.0972 -6.13318
rtibia 50.6053 -0 0
rfoot -22.269 5.29224 -0.00309278
rtoes -41.8911 0 0
lowerback -1.9602 -0.846423 0.919371
upperback -1.10612 -1.14889 -6.3668
thorax -0.190784 -0.608571 -7.16448
lowerneck -5.985 1.30688 5.54944
upperneck 0.562507 1.26335 3.2892
head 1.18973 0.707913 0.127958
lclavicle 0 0 0
lhumerus -59.3703 -44.3335 113.726
lradius 55.4649 -0 0
lwrist 25.2558 0 0
lhand 38.5939 23.7374 0.00214708
lfingers 0 0 0
lthumb 61.2166 36.1502 -0.0029739
rclavicle 0 0 0
rhumerus 4.94532 -27.2455 0.97202
rradius 29.0069 -0 0
rwrist -15.281 0 0
rhand -34.7713 -49.0522 0.00874746
rfingers 0 0 0
rthumb -7.92367 -78.874 0.0068857
956
root 1.04274 15.2329 32.7112 6.37157 -4.7198 4.19532
lfemur 8.44863 2.21201 5.08414
ltibia 0 0 0
lfoot -29.2467 -12.5458 -0.00185864
ltoes -33.1748 0 0
rfemur -33.2419 -16.0973 -5.99236
rtibia 50.7868 -0 0
rfoot -22.4455 5.39472 -0.00160619
rtoes -41.8206 0 0
lowerback -1.92657 -0.887343 0.928059
upperback -1.07011 -1.20339 -6.30557
thorax -0.178605 -0.634941 -7.10398
lowerneck -5.92172 1.38989 5.65497
upperneck 0.52301 1.37287 3.27896
head 1.16759 0.760898 0.110215
lclavicle 0 0 0
lhumerus -59.3875 -44.385 113.858
lradius 55.4491 -0 0
lwrist 25.2713 0 0
lhand 38.4136 23.6677 0.00111506
lfingers 0 0 0
lthumb 61.0661 36.2658 -0.00154445
rclavicle 0 0 0
rhumerus 5.1672 -26.5412 1.19279
rradius 29.0002 -0 0
rwrist -15.1207 0 0
rhand -34.3157 -48.9399 0.00454267
rfingers 0 0 0
rthumb -7.48404 -78.7823 0.00357585
957
root 1.03957 15.2304 32.7084 6.33874 -4.84406 4.15834
lfemur 8.55453 2.31006 5.14925
ltibia 0 0 0
lfoot -29.3128 -12.4077 -0.000521899
ltoes -33.2904 0 0
rfemur -33.3622 -16.0971 -5.89933
rtibia 50.9068 -0 0
rfoot -22.5622 5.46241 -0.000451013
rtoes -41.774 0 0
lowerback -1.90437 -0.914376 0.933785
upperback -1.04636 -1.23942 -6.26514
thorax -0.170576 -0.652367 -7.06401
lowerneck -5.87984 1.44466 5.72474
upperneck 0.496909 1.4452 3.27215
head 1.15296 0.795894 0.0984837
lclavicle 0 0 0
lhumerus -59.399 -44.4189 113.945
lradius 55.4387 -0 0
lwrist 25.2815 0 0
lhand 38.2946 23.6216 0.000313104
lfingers 0 0 0
lthumb 60.9666 36.3421 -0.000433677
rclavicle 0 0 0
rhumerus 5.31468 -26.0764 1.33954
rradius 28.9957 -0 0
rwrist -15.0148 0 0
rhand -34.0147 -48.8658 0.00127552
rfingers 0 0 0
rthumb -7.19364 -78.7218 0.00100406
958
root 1.02002 15.1983 32.6795 6.32691 -4.88893 4.145
lfemur 8.5928 2.34544 5.1728
ltibia 2.54444e-14 0 0
lfoot -29.3367 -12.3578 0
ltoes -33.3322 0 0
rfemur -33.4057 -16.097 -5.86574
rtibia 50.9501 0 0
rfoot -22.6043 5.48685 0
rtoes -41.7572 0 0
lowerback -1.89635 -0.924138 0.93585
upperback -1.03779 -1.25243 -6.25055
thorax -0.167679 -0.658661 -7.04958
lowerneck -5.8647 1.46443 5.74994
upperneck 0.487481 1.47132 3.26968
head 1.14767 0.808531 0.0942452
lclavicle 8.05078e-15 7.95139e-15 0
lhumerus -59.4032 -44.4312 113.977
lradius 55.4349 0 0
lwrist 25.2852 0 0
lhand 38.2516 23.605 0
lfingers 7.12502 0 0
lthumb 60.9307 36.3697 0
rclavicle 8.05078e-15 7.95139e-15 0
rhumerus 5.36812 -25.9086 1.39272
rradius 28.9941 0 0
rwrist -14.9766 0 0
rhand -33.906 -48.839 0
rfingers 7.12502 0 0
rthumb -7.08878 -78.7 0
959
root 1.01635 15.1898 32.672 6.3137 -4.92973 4.15004
lfemur 8.61014 2.37571 5.17711
ltibia 0 0 0
lfoot -29.3843 -12.3495 -5.35389e-05
ltoes 0 0 0
rfemur -33.468 -16.1156 -5.87071
rtibia 51.0065 -0 0
rfoot -22.6312 5.55605 -0.000250726
rtoes -41.7114 0 0
lowerback -1.88206 -0.898792 0.927956
upperback -1.03726 -1.21859 -6.24233
thorax -0.170522 -0.641552 -7.03555
lowerneck -5.89164 1.45295 5.7514
upperneck 0.461187 1.45501 3.27025
head 1.14375 0.799825 0.0937933
lclavicle 0 0 0
lhumerus -59.3396 -44.3963 113.993
lradius 55.3996 -0 0
lwrist 25.2892 0 0
lhand 38.1838 23.7063 -0.000925764
lfingers 0 0 0
lthumb 60.873 36.534 -0.00127652
rclavicle 0 0 0
rhumerus 5.30163 -25.9206 1.36893
rradius 28.9632 -0 0
rwrist -14.8561 0 0
rhand -33.7925 -48.7037 0.00206801
rfingers 0 0 0
rthumb -6.97922 -78.568 0.00194876
960
root 1.01514 15.1814 32.6648 6.29477 -4.98815 4.15727
lfemur 8.63498 2.41906 5.1833
ltibia 0 0 0
lfoot -29.4525 -12.3375 -0.000118128
ltoes 0 0 0
rfemur -33.5572 -16.1423 -5.8778
rtibia 51.0872 -0 0
rfoot -22.6697 5.65515 -0.000553203
rtoes -41.6458 0 0
lowerback -1.8616 -0.86249 0.916663
upperback -1.03648 -1.17014 -6.23056
thorax -0.174586 -0.617049 -7.01546
lowerneck -5.93021 1.43651 5.75349
upperneck 0.42353 1.43166 3.27107
head 1.13813 0.787357 0.0931471
lclavicle 0 0 0
lhumerus -59.2486 -44.3464 114.017
lradius 55.3491 -0 0
lwrist 25.295 0 0
lhand 38.0866 23.8515 -0.00204262
lfingers 0 0 0
lthumb 60.7904 36.7692 -0.00281655
rclavicle 0 0 0
rhumerus 5.20641 -25.9377 1.33489
rradius 28.919 -0 0
rwrist -14.6835 0 0
rhand -33.63 -48.51 0.00456293
rfingers 0 0 0
rthumb -6.8223 -78.3788 0.00429981
961
root 1.01594 15.1733 32.6579 6.27159 -5.05966 4.16614
lfemur 8.6654 2.47211 5.1909
ltibia 0 0 0
lfoot -29.536 -12.3229 -0.000177823
ltoes 0 0 0
rfemur -33.6664 -16.175 -5.88642
rtibia 51.1861 -0 0
rfoot -22.7169 5.77646 -0.000832755
rtoes -41.5656 0 0
lowerback -1.83657 -0.818047 0.902856
upperback -1.03552 -1.11082 -6.21615
thorax -0.179549 -0.587053 -6.99087
lowerneck -5.97743 1.41639 5.75607
upperneck 0.377434 1.40307 3.2721
head 1.13125 0.772095 0.0923578
lclavicle 0 0 0
lhumerus -59.1373 -44.2853 114.045
lradius 55.2873 -0 0
lwrist 25.3021 0 0
lhand 37.9677 24.0291 -0.00307484
lfingers 0 0 0
lthumb 60.6892 37.0572 -0.00423989
rclavicle 0 0 0
rhumerus 5.08984 -25.9588 1.29326
rradius 28.8649 -0 0
rwrist -14.4723 0 0
rhand -33.431 -48.2728 0.00686881
rfingers 0 0 0
rthumb -6.63021 -78.1473 0.00647272
962
root 1.01831 15.1656 32.6515 6.24562 -5.13973 4.17612
lfemur 8.69946 2.53152 5.19944
ltibia 0 0 0
lfoot -29.6294 -12.3065 -0.000219356
ltoes 0 0 0
rfemur -33.7887 -16.2116 -5.896
rtibia 51.2967 -0 0
rfoot -22.7697 5.91229 -0.00102726
rtoes -41.4757 0 0
lowerback -1.80855 -0.768275 0.88742
upperback -1.03443 -1.0444 -6.20002
thorax -0.185091 -0.553462 -6.96334
lowerneck -6.03031 1.39386 5.75898
upperneck 0.325819 1.37106 3.27328
head 1.12355 0.755005 0.0914762
lclavicle 0 0 0
lhumerus -59.0127 -44.2169 114.077
lradius 55.2181 -0 0
lwrist 25.31 0 0
lhand 37.8346 24.2281 -0.00379304
lfingers 0 0 0
lthumb 60.5759 37.3796 -0.00523024
rclavicle 0 0 0
rhumerus 4.95932 -25.9825 1.24669
rradius 28.8043 -0 0
rwrist -14.2357 0 0
rhand -33.2082 -48.0072 0.00847322
rfingers 0 0 0
rthumb -6.4151 -77.8881 0.00798461
